<?xml version="1.0" encoding="utf-8"?>
<!-- Generator: Adobe Illustrator 16.0.0, SVG Export Plug-In . SVG Version: 6.00 Build 0)  -->
<!DOCTYPE svg PUBLIC "-//W3C//DTD SVG 1.1//EN" "http://www.w3.org/Graphics/SVG/1.1/DTD/svg11.dtd">
<svg version="1.1" id="Layer_1" xmlns="http://www.w3.org/2000/svg" xmlns:xlink="http://www.w3.org/1999/xlink" x="0px" y="0px"
	 width="753.577px" height="605.97px" viewBox="0 0 753.577 605.97" enable-background="new 0 0 753.577 605.97"
	 xml:space="preserve">
<g>
	<polygon fill="none" points="346.53,157.362 337.104,156.789 337.104,157.362 	"/>
	<polygon fill="none" points="246.93,163.217 241.864,150.989 227.368,150.104 221.936,163.217 	"/>
	<path fill="none" d="M46.652,160.741H25.375v19.477h21.277c9.456,0,14.522-2.928,14.522-9.683
		C61.174,163.892,56.108,160.741,46.652,160.741z"/>
	<path fill="none" d="M43.498,147.455c8.076,0,12.798-2.607,13.6-7.719l-31.723-1.933v9.652H43.498z"/>
	<polygon fill="none" points="442.365,163.217 442.358,163.199 417.996,161.714 417.375,163.217 	"/>
	<path fill="#A81D3D" d="M45.752,115.144H7.248V136.7l18.127,1.104v-8.924h18.123c8.895,0,13.737,3.039,13.737,9.231
		c0,0.572-0.056,1.106-0.137,1.625l17.844,1.085c0.417-1.625,0.644-3.355,0.644-5.187C75.585,123.363,65.453,115.144,45.752,115.144
		z"/>
	<path fill="#E31A4D" d="M43.498,147.455H25.375v-9.652L7.248,136.7v57.252h40.755c20.716,0,31.522-7.881,31.522-21.503
		c0-9.906-5.628-16.661-14.41-19.477c4.925-2.592,8.45-6.781,9.827-12.15l-17.844-1.085
		C56.295,144.848,51.574,147.455,43.498,147.455z M46.652,180.218H25.375v-19.477h21.277c9.456,0,14.522,3.151,14.522,9.794
		C61.174,177.29,56.108,180.218,46.652,180.218z"/>
	<polygon fill="#A81D3D" points="152.928,129.78 152.928,115.144 93.374,115.144 93.374,141.945 111.497,143.049 111.497,129.78 	
		"/>
	<polygon fill="#E31A4D" points="93.374,193.952 154.391,193.952 154.391,179.315 111.497,179.315 111.497,161.079 148.089,161.079 
		148.089,146.892 111.497,146.892 111.497,143.049 93.374,141.945 	"/>
	<polygon fill="#A81D3D" points="225.538,115.144 210.417,149.073 227.368,150.104 234.431,133.044 241.864,150.989 
		260.076,152.098 243.552,115.144 	"/>
	<polygon fill="#E31A4D" points="246.93,163.217 221.936,163.217 227.368,150.104 210.417,149.073 190.415,193.952 209.103,193.952 
		216.082,177.065 252.673,177.065 259.652,193.952 278.791,193.952 260.076,152.098 241.864,150.989 	"/>
	<path fill="#E31A4D" d="M337.104,157.362v-0.574l-18.238-1.111v38.274h18.238v-21.729h15.873c13.671,0,23.989-4.628,29.564-12.667
		l-36.01-2.193H337.104z"/>
	<path fill="#A81D3D" d="M352.977,115.144h-34.111v40.533l18.238,1.111v-26.784h14.861c11.145,0,16.776,5.066,16.776,13.735
		c0,8.557-5.631,13.623-16.776,13.623h-5.434l36.01,2.193c3.013-4.34,4.662-9.657,4.662-15.816
		C387.203,126.063,374.031,115.144,352.977,115.144z"/>
	<polygon fill="#A81D3D" points="420.975,115.144 400.687,160.662 417.996,161.714 429.87,133.044 442.358,163.199 460.984,164.333 
		438.991,115.144 	"/>
	<polygon fill="#E31A4D" points="442.365,163.217 417.375,163.217 417.996,161.714 400.687,160.662 385.849,193.952 
		404.538,193.952 411.52,177.065 448.108,177.065 455.09,193.952 474.226,193.952 460.984,164.333 442.358,163.199 	"/>
	<polygon fill="#E31A4D" points="482.443,193.952 500.681,193.952 500.681,171.999 516.559,171.999 517.454,171.999 
		532.657,193.952 552.247,193.952 534.711,168.823 482.443,165.641 	"/>
	<path fill="#A81D3D" d="M550.78,143.74c0-17.676-13.171-28.596-34.222-28.596h-34.115v50.497l52.268,3.182l-0.142-0.202
		C544.813,164.229,550.78,155.561,550.78,143.74z M515.543,157.476h-14.862v-27.471h14.862c11.145,0,16.775,5.066,16.775,13.735
		C532.318,152.296,526.688,157.476,515.543,157.476z"/>
	<polygon fill="#E31A4D" points="580.386,171.606 580.386,193.952 598.625,193.952 598.625,172.717 	"/>
	<polygon fill="#A81D3D" points="598.625,130.005 623.844,130.005 623.844,115.144 555.17,115.144 555.17,130.005 580.386,130.005 
		580.386,171.606 598.625,172.717 	"/>
	<path fill="#E31A4D" d="M45.413,327.528c-14.029,0-24.585-10.184-24.651-25.081H2.296c0.072,23.347,18.284,40.616,43.117,40.616
		c24.721,0,43.042-17.158,43.118-40.616H70.062C69.996,317.344,59.443,327.528,45.413,327.528z"/>
	<path fill="#A81D3D" d="M45.413,261.555c-24.882,0-43.12,17.338-43.12,40.754c0,0.046,0.003,0.092,0.003,0.139h18.465
		c0-0.048-0.003-0.093-0.003-0.139c0-14.972,10.583-25.217,24.655-25.217c14.073,0,24.656,10.245,24.656,25.217
		c0,0.046-0.007,0.09-0.007,0.139h18.469c0-0.046,0-0.093,0-0.139C88.531,278.779,70.181,261.555,45.413,261.555z"/>
	<polygon fill="#E31A4D" points="102.265,341.713 120.503,341.713 120.503,313.006 156.979,313.006 156.979,302.448 
		102.265,302.448 	"/>
	<polygon fill="#A81D3D" points="120.503,298.369 120.503,277.542 161.82,277.542 161.82,262.905 102.265,262.905 102.265,302.448 
		156.979,302.448 156.979,298.369 	"/>
	<rect x="222.387" y="302.448" fill="#E31A4D" width="18.238" height="39.265"/>
	<polygon fill="#A81D3D" points="265.842,277.767 265.842,262.905 197.17,262.905 197.17,277.767 222.387,277.767 222.387,302.448 
		240.625,302.448 240.625,277.767 	"/>
	<polygon fill="#E31A4D" points="275.637,341.713 293.875,341.713 293.875,309.401 329.675,309.401 329.675,341.713 
		347.913,341.713 347.913,302.448 275.637,302.448 	"/>
	<polygon fill="#A81D3D" points="329.675,262.905 329.675,293.978 293.875,293.978 293.875,262.905 275.637,262.905 
		275.637,302.448 347.913,302.448 347.913,262.905 	"/>
	<polygon fill="#E31A4D" points="384.726,308.839 421.317,308.839 421.317,302.448 366.603,302.448 366.603,341.713 
		427.619,341.713 427.619,327.078 384.726,327.078 	"/>
	<polygon fill="#A81D3D" points="421.317,294.653 384.726,294.653 384.726,277.542 426.157,277.542 426.157,262.905 
		366.603,262.905 366.603,302.448 421.317,302.448 	"/>
	<polygon fill="none" points="359.496,446.753 362.222,446.613 362.212,442.191 	"/>
	<polygon fill="none" points="342.312,447.638 328.394,448.359 335.191,459.64 	"/>
	<path fill="none" d="M433.248,475.291c11.145,0,17.565-6.193,17.565-21.166v-12.082l-35.126,1.811v10.271
		C415.686,469.097,422.215,475.291,433.248,475.291z"/>
	<polygon fill="none" points="307.72,449.421 311.391,449.234 307.72,443.203 	"/>
	<polygon fill="none" points="541.099,437.384 524.499,438.242 541.099,458.513 	"/>
	<polygon fill="none" points="248.576,452.476 254.72,452.156 254.698,442.191 	"/>
	<path fill="none" d="M126.243,475.291c11.572,0,20.772-6.938,23.679-17.729l-46.583,2.404
		C106.894,469.371,115.555,475.291,126.243,475.291z"/>
	<polygon fill="none" points="200.209,454.968 207.148,454.611 200.209,443.203 	"/>
	<polygon fill="none" points="231.406,453.361 224.122,453.738 227.68,459.64 	"/>
	<path fill="none" d="M150.898,450.07c0-14.973-10.583-25.217-24.655-25.217c-14.072,0-24.655,10.245-24.655,25.217
		c0,3.602,0.624,6.92,1.751,9.896l46.583-2.404C150.55,455.232,150.898,452.732,150.898,450.07z"/>
	<polygon fill="none" points="722.961,428.003 702.343,429.068 712.331,445.679 	"/>
	<path fill="#E31A4D" d="M44.963,490.826c13.734,0,25.105-4.953,32.538-14.074l-11.71-10.805c-5.29,6.191-11.934,9.344-19.816,9.344
		c-9.458,0-17.144-4.277-21.448-11.26l-19.563,1.01C10.875,480.646,26.061,490.826,44.963,490.826z"/>
	<path fill="#A81D3D" d="M45.975,424.853c7.882,0,14.526,3.153,19.816,9.231l11.71-10.806c-7.432-9.007-18.804-13.96-32.426-13.96
		c-24.543,0-42.782,17-42.782,40.753c0,5.379,0.943,10.404,2.671,14.971l19.563-1.01c-2.405-3.898-3.769-8.633-3.769-13.961
		C20.758,435.21,31.226,424.853,45.975,424.853z"/>
	<path fill="#A81D3D" d="M126.243,409.317c-24.882,0-43.117,17.337-43.117,40.753c0,3.801,0.486,7.436,1.396,10.867l18.816-0.971
		c-1.127-2.977-1.751-6.295-1.751-9.896c0-14.973,10.583-25.217,24.655-25.217c14.073,0,24.655,10.245,24.655,25.217
		c0,2.662-0.348,5.162-0.976,7.492l18.955-0.977c0.319-2.111,0.486-4.283,0.486-6.516
		C169.363,426.542,151.013,409.317,126.243,409.317z"/>
	<path fill="#E31A4D" d="M126.243,475.291c-10.688,0-19.349-5.92-22.904-15.324l-18.816,0.971
		c4.701,17.719,20.876,29.889,41.72,29.889c22.421,0,39.579-14.113,42.634-34.24l-18.955,0.977
		C147.015,468.353,137.815,475.291,126.243,475.291z"/>
	<polygon fill="#E31A4D" points="227.68,459.64 224.122,453.738 207.148,454.611 223.287,481.146 231.508,481.146 248.576,452.476 
		231.406,453.361 	"/>
	<polygon fill="#E31A4D" points="254.812,489.474 271.924,489.474 271.812,451.275 254.72,452.156 	"/>
	<polygon fill="#E31A4D" points="183.097,489.474 200.209,489.474 200.209,454.968 183.097,455.853 	"/>
	<polygon fill="#A81D3D" points="256.725,410.667 231.406,453.361 248.576,452.476 254.698,442.191 254.72,452.156 271.812,451.275 
		271.697,410.667 	"/>
	<polygon fill="#A81D3D" points="198.182,410.667 183.097,410.667 183.097,455.853 200.209,454.968 200.209,443.203 
		207.148,454.611 224.122,453.738 	"/>
	<polygon fill="#E31A4D" points="290.609,489.474 307.72,489.474 307.72,449.421 290.609,450.306 	"/>
	<polygon fill="#A81D3D" points="305.693,410.667 290.609,410.667 290.609,450.306 307.72,449.421 307.72,443.203 311.391,449.234 
		328.394,448.359 	"/>
	<polygon fill="#E31A4D" points="362.324,489.474 379.436,489.474 379.311,445.73 362.222,446.613 	"/>
	<polygon fill="#E31A4D" points="335.191,459.64 328.394,448.359 311.391,449.234 330.802,481.146 339.019,481.146 359.496,446.753 
		342.312,447.638 	"/>
	<polygon fill="#A81D3D" points="364.236,410.667 342.312,447.638 359.496,446.753 362.212,442.191 362.222,446.613 379.311,445.73 
		379.212,410.667 	"/>
	<polygon fill="#A81D3D" points="415.686,410.667 397.447,410.667 397.447,444.794 415.686,443.853 	"/>
	<path fill="#E31A4D" d="M450.813,454.125c0,14.973-6.42,21.166-17.565,21.166c-11.033,0-17.562-6.193-17.562-21.166v-10.271
		l-18.239,0.941v10.004c0,23.193,13.284,36.027,35.688,36.027c22.405,0,35.688-12.834,35.688-36.027v-13.686l-18.011,0.93V454.125z"
		/>
	<polygon fill="#A81D3D" points="450.813,410.667 450.813,442.042 468.824,441.113 468.824,410.667 	"/>
	<polygon fill="#A81D3D" points="501.92,410.667 486.835,410.667 486.835,440.183 524.499,438.242 	"/>
	<polygon fill="#A81D3D" points="541.099,410.667 541.099,437.384 559.112,436.455 559.112,410.667 	"/>
	<polygon fill="#E31A4D" points="541.099,458.513 524.499,438.242 486.835,440.183 486.835,489.474 504.849,489.474 
		504.849,441.628 544.141,489.474 559.112,489.474 559.112,436.455 541.099,437.384 	"/>
	<polygon fill="#E31A4D" points="577.798,489.474 596.037,489.474 596.037,434.552 577.798,435.492 	"/>
	<polygon fill="#A81D3D" points="577.798,410.667 577.798,435.492 596.037,434.552 596.037,410.667 	"/>
	<polygon fill="#A81D3D" points="674.504,425.528 674.504,414.97 671.915,410.667 605.83,410.667 605.83,425.528 631.048,425.528 
		631.048,432.746 649.288,431.806 649.288,425.528 	"/>
	<polygon fill="#E31A4D" points="631.048,489.474 649.288,489.474 649.288,431.806 631.048,432.746 	"/>
	<polygon fill="#E31A4D" points="722.961,428.003 712.331,445.679 702.343,429.068 683.577,430.036 702.424,461.33 702.424,489.474 
		720.664,489.474 720.664,461.552 741.429,427.052 	"/>
	<polygon fill="#A81D3D" points="691.279,410.667 674.504,410.667 674.504,414.97 683.577,430.036 702.343,429.068 	"/>
	<polygon fill="#A81D3D" points="751.284,410.667 733.384,410.667 722.961,428.003 741.429,427.052 	"/>
	<polygon fill="#A81D3D" points="674.504,410.667 671.915,410.667 674.504,414.97 	"/>
</g>
</svg>
